PathFileType	4	(X/Y/Z)	HSS_squat2.trc
DataRate	CameraRate	NumFrames	NumMarkers	Units	OrigDataRate	OrigDataStartFrame	OrigNumFrames
120.0	120.0	6	44	mm	120.0	607	970
Frame#	Time		R.Shoulder		Offset		L.Shoulder		R.Elbow		R.Wrist.Radial		R.Wrist		R.Hand		L.Elbow		L.Wrist.Radial		L.Wrist		L.Hand		R.Hip		V.Sacral		L.PSIS		L.Hip		R.Thigh.Upper		R.Thigh.Front		R.Thigh.Rear		X.Shell.Lower.Thigh.Right		R.Knee.Lateral		R.Shank.Upper		R.Shank.Front		R.Shank.Rear		X.Shell.Lower.Shank.Right		R.Ankle.Lateral		R.Heel		R.Toe		L.Thigh.Upper		L.Thigh.Front		L.Thigh.Rear		X.Shell.Lower.Thigh.Left		L.Knee.Lateral		L.Shank.Upper		L.Shank.Front		L.Shank.Rear		X.Shell.Lower.Shank.Left		L.Ankle.Lateral		L.Heel		L.Toe		R.Troc		L.Troc		R.PSIS		L.ASIS		R.ASIS
			X1	Y1	Z1	X2	Y2	Z2	X3	Y3	Z3	X4	Y4	Z4	X5	Y5	Z5	X6	Y6	Z6	X7	Y7	Z7	X8	Y8	Z8	X9	Y9	Z9	X10	Y10	Z10	X11	Y11	Z11	X12	Y12	Z12	X13	Y13	Z13	X14	Y14	Z14	X15	Y15	Z15	X16	Y16	Z16	X17	Y17	Z17	X18	Y18	Z18	X19	Y19	Z19	X20	Y20	Z20	X21	Y21	Z21	X22	Y22	Z22	X23	Y23	Z23	X24	Y24	Z24	X25	Y25	Z25	X26	Y26	Z26	X27	Y27	Z27	X28	Y28	Z28	X29	Y29	Z29	X30	Y30	Z30	X31	Y31	Z31	X32	Y32	Z32	X33	Y33	Z33	X34	Y34	Z34	X35	Y35	Z35	X36	Y36	Z36	X37	Y37	Z37	X38	Y38	Z38	X39	Y39	Z39	X40	Y40	Z40	X41	Y41	Z41	X42	Y42	Z42	X43	Y43	Z43	X44	Y44	Z44

607	5.05000	122.88939	841.94086	-226.53737	-165.70882	795.81744	-95.42171	-183.32236	845.25269	-249.34494	212.97124	678.75189	-502.39890	62.44668	727.03406	-712.86237	124.30084	752.55029	-746.67609	54.05876	765.65497	-797.52087	-256.50879	697.46143	-538.13361	-137.70505	760.55859	-760.82898	-82.69968	724.62646	-728.90295	-59.31646	758.82135	-803.56812	102.42088	499.52869	45.67274	-50.06461	485.87851	173.63115	-86.29166	496.55692	166.03940	-196.93474	491.55096	43.68863	185.53477	479.81927	-89.07843	173.01399	515.70190	-125.75041	210.77760	466.51697	-124.81442	197.09837	495.62613	-158.47391	217.26665	439.27191	-267.58374	259.64688	324.64929	-245.62022	234.75732	274.39917	-252.61499	244.88847	305.71384	-201.66208	234.77551	259.72723	-205.42525	185.47810	71.16940	-92.06758	134.23416	34.78848	-43.81990	200.40109	35.05701	-235.35603	-247.75284	472.84070	-111.62990	-232.82336	499.12878	-160.65417	-271.17389	450.48981	-148.22151	-262.94702	481.22717	-180.05539	-254.51784	424.27301	-298.27451	-288.85855	274.96899	-219.43987	-270.79486	241.59044	-231.87488	-276.32993	255.60049	-172.85846	-277.11642	217.53436	-179.40918	-233.70297	72.54388	-109.16803	-185.63696	38.39558	-46.12820	-241.82887	32.84562	-242.09662	134.67523	461.05176	72.35097	-233.41119	442.98859	67.87492	-10.55461	497.14020	169.84711	-154.25839	463.99850	2.03886	79.87613	486.89090	-14.35650
608	5.05833	122.75314	842.18585	-226.25697	-165.75841	795.87909	-95.17499	-183.40678	845.43036	-249.01959	212.95883	679.02094	-502.31104	62.46731	727.42828	-712.74542	124.12864	752.98151	-746.50842	53.87243	766.21381	-797.21533	-256.64908	697.71198	-537.85254	-137.94124	760.85071	-760.47815	-82.78603	724.89215	-728.73376	-59.55112	759.31830	-803.20758	102.42192	499.51788	45.64045	-50.08907	485.82159	173.66203	-86.32108	496.47763	166.03728	-196.94983	491.45294	43.69002	185.37372	479.80499	-89.21026	172.83014	515.72418	-125.86427	210.58214	466.52347	-124.93150	196.87738	495.60730	-158.63626	217.06165	439.21777	-267.67987	259.41110	324.63474	-245.76836	234.52350	274.39737	-252.76991	244.70795	305.71774	-201.83481	234.63620	259.73965	-205.61014	185.47719	71.18929	-92.11534	134.22374	34.80235	-43.83973	200.41003	35.01834	-235.36151	-247.70396	472.79086	-111.65239	-232.76849	499.08286	-160.67599	-271.15726	450.44766	-148.26674	-262.90530	481.17731	-180.06015	-254.47180	424.26605	-298.31168	-288.80319	274.97504	-219.44675	-270.76843	241.59392	-231.88205	-276.28900	255.60478	-172.86861	-277.09427	217.54108	-179.39874	-233.71107	72.53526	-109.15907	-185.62196	38.37942	-46.13918	-241.84627	32.84886	-242.10213	134.66631	461.07300	72.31303	-233.42776	442.89047	67.88867	-10.54299	497.08185	169.84419	-154.30370	463.92151	2.12857	80.02995	486.92255	-14.23035
609	5.06667	122.65967	842.46393	-225.94797	-165.81506	795.97198	-94.89573	-183.47632	845.64716	-248.70203	212.89195	679.45581	-502.21631	63.10712	726.73730	-713.23590	124.04889	753.59521	-746.30396	53.75107	766.70593	-797.01532	-256.84558	697.97986	-537.55707	-138.13634	761.34296	-760.20190	-83.17821	725.40332	-728.52692	-59.79794	759.88025	-802.86707	102.43884	499.54672	45.60640	-50.08263	485.81332	173.66888	-86.34090	496.46173	166.07047	-196.97369	491.39917	43.69233	185.18724	479.82559	-89.35272	172.67137	515.74402	-125.97987	210.32965	466.54944	-125.07035	196.65535	495.59991	-158.82153	216.75490	439.19223	-267.85202	259.24872	324.59677	-245.84329	234.29379	274.39035	-252.91557	244.52600	305.69290	-201.99889	234.48116	259.74219	-205.75931	185.45868	71.17724	-92.13814	134.23650	34.80931	-43.85587	200.39197	35.02888	-235.40144	-247.66345	472.74655	-111.69479	-232.72093	499.05093	-160.72362	-271.07495	450.43912	-148.25763	-262.83670	481.13483	-180.10957	-254.38924	424.27502	-298.33505	-288.74088	274.99329	-219.42136	-270.72046	241.59865	-231.90372	-276.26221	255.62590	-172.85139	-277.05103	217.54820	-179.41054	-233.70299	72.53547	-109.14759	-185.62582	38.37537	-46.13486	-241.83643	32.86691	-242.10391	134.67686	461.12796	72.25946	-233.43289	442.84775	67.89661	-10.53347	497.09286	169.84143	-154.32578	463.89566	2.25034	80.18092	486.99139	-14.10496
610	5.07500	122.58614	842.73895	-225.74605	-165.79181	796.14368	-94.56325	-183.53888	845.90625	-248.30191	212.75511	680.00446	-501.99646	63.26539	727.23901	-713.03772	123.86031	754.23486	-746.14203	53.54776	767.39996	-796.73151	-257.11115	698.42902	-537.24622	-138.40970	762.02087	-759.86902	-83.36275	725.88544	-728.36621	-60.06062	760.51733	-802.50470	102.45425	499.60535	45.56796	-50.07493	485.87646	173.62665	-86.32063	496.51208	166.02663	-196.99010	491.41177	43.68385	185.04781	479.87811	-89.49635	172.53809	515.78156	-126.11311	210.11337	466.58841	-125.23986	196.50087	495.63535	-158.94733	216.40617	439.15707	-268.03040	259.08878	324.60513	-245.90736	234.09169	274.40332	-253.03281	244.30241	305.69528	-202.15759	234.33571	259.74612	-205.85617	185.44995	71.19575	-92.14730	134.24059	34.81783	-43.85258	200.37592	35.01887	-235.43051	-247.60262	472.76849	-111.75063	-232.64989	499.05597	-160.76799	-270.97919	450.44351	-148.29451	-262.75757	481.13297	-180.16089	-254.29306	424.27399	-298.32791	-288.66364	275.04593	-219.44296	-270.67172	241.61827	-231.89835	-276.17642	255.63765	-172.84862	-277.00491	217.58492	-179.40710	-233.69298	72.54880	-109.13489	-185.63187	38.38768	-46.10605	-241.81483	32.86672	-242.07246	134.67085	461.22379	72.20096	-233.40778	442.87061	67.88412	-10.50825	497.17169	169.79665	-154.36998	463.95340	2.31746	80.32879	487.09747	-13.98033
611	5.08333	122.47781	843.06451	-225.49442	-165.82344	796.41315	-94.21934	-183.61575	846.22290	-247.96559	212.70831	680.41394	-501.84689	63.03440	727.95905	-712.65259	123.81960	754.85382	-745.84680	53.37112	768.16962	-796.39038	-257.31866	698.94910	-536.97791	-138.70453	762.58386	-759.62738	-83.50609	726.70258	-728.00061	-60.32661	761.21960	-802.35449	102.46738	499.68384	45.50848	-50.07259	485.99628	173.62622	-86.30961	496.61346	166.02409	-197.01013	491.48367	43.68538	184.93175	479.91281	-89.61268	172.39236	515.82788	-126.29984	209.94205	466.63062	-125.39848	196.32603	495.67209	-159.11113	216.13420	439.15146	-268.17395	258.89969	324.64536	-246.03600	233.89055	274.41306	-253.15115	244.10933	305.74838	-202.27458	234.20334	259.75250	-205.93335	185.43266	71.20704	-92.18684	134.23946	34.80964	-43.85918	200.34882	35.00910	-235.47574	-247.55786	472.82553	-111.75424	-232.57521	499.09607	-160.83455	-270.90378	450.47565	-148.34096	-262.66385	481.14993	-180.19589	-254.19699	424.29181	-298.34714	-288.57581	275.07498	-219.41666	-270.60831	241.64003	-231.92081	-276.09033	255.66064	-172.85541	-276.92923	217.62025	-179.40706	-233.66559	72.56960	-109.15840	-185.61320	38.35891	-46.13683	-241.81735	32.85759	-242.07228	134.70389	461.33197	72.11567	-233.39958	442.95361	67.84040	-10.46614	497.32117	169.75696	-154.39621	464.08176	2.41073	80.47337	487.24084	-13.85646
612	5.09167	122.38806	843.45892	-225.22736	-165.81740	796.69495	-93.95884	-183.80746	846.60925	-247.58745	212.65918	681.09680	-501.64722	62.72216	728.92096	-712.50110	123.59763	755.66699	-745.51154	53.11183	768.93658	-796.17212	-257.51962	699.48853	-536.72168	-138.89322	763.48242	-759.31744	-83.79277	727.37384	-727.73376	-60.56592	762.08929	-802.13641	102.48649	499.83185	45.48547	-50.00528	486.17484	173.59065	-86.29575	496.79074	165.94843	-197.02939	491.66006	43.65261	184.81699	479.94266	-89.80826	172.24474	515.90698	-126.47375	209.82764	466.70151	-125.56310	196.15388	495.70856	-159.30013	215.95726	439.16016	-268.34872	258.69778	324.67227	-246.14360	233.75659	274.45718	-253.18333	243.93311	305.77689	-202.36166	234.02005	259.80167	-206.00963	185.43265	71.21194	-92.20755	134.23682	34.84964	-43.87678	200.39221	34.99860	-235.49071	-247.53403	472.89050	-111.81866	-232.51044	499.15533	-160.91112	-270.81992	450.50751	-148.37262	-262.57285	481.19812	-180.24756	-254.08362	424.30872	-298.41113	-288.49045	275.12643	-219.40547	-270.54730	241.67220	-231.93402	-275.97427	255.66628	-172.86469	-276.87439	217.66290	-179.39886	-233.63538	72.58237	-109.14283	-185.60667	38.36659	-46.12396	-241.82674	32.87169	-242.08592	134.74596	461.51395	71.99867	-233.36174	443.08484	67.80911	-10.44933	497.50308	169.68277	-154.44102	464.34390	2.42828	80.61442	487.42142	-13.73337
